<?xml version="1.0" encoding="UTF-8" standalone="no"?>
<svg
   xmlns:dc="http://purl.org/dc/elements/1.1/"
   xmlns:cc="http://creativecommons.org/ns#"
   xmlns:rdf="http://www.w3.org/1999/02/22-rdf-syntax-ns#"
   xmlns:svg="http://www.w3.org/2000/svg"
   xmlns="http://www.w3.org/2000/svg"
   width="256"
   height="256"
   viewBox="0 0 67.733331 67.733331"
   version="1.1"
   id="svg8">
  <defs
     id="defs2" />
  <metadata
     id="metadata5">
    <rdf:RDF>
      <cc:Work
         rdf:about="">
        <dc:format>image/svg+xml</dc:format>
        <dc:type
           rdf:resource="http://purl.org/dc/dcmitype/StillImage" />
        <dc:title></dc:title>
      </cc:Work>
    </rdf:RDF>
  </metadata>
  <rect
     ry="6.8791685"
     y="-2.1435546e-06"
     x="0"
     height="67.733322"
     width="67.733337"
     id="rect817"
     style="opacity:1;fill:#c0e1b9;fill-opacity:1;stroke:none;stroke-width:0.06614583;stroke-linecap:round;stroke-linejoin:round;stroke-miterlimit:4;stroke-dasharray:none;stroke-dashoffset:0;stroke-opacity:1;paint-order:stroke fill markers" />
  <rect
     style="opacity:1;fill:#c0e1b9;fill-opacity:1;stroke:none;stroke-width:0.06614583;stroke-linecap:round;stroke-linejoin:round;stroke-miterlimit:4;stroke-dasharray:none;stroke-dashoffset:0;stroke-opacity:1;paint-order:stroke fill markers"
     id="rect832"
     width="67.733337"
     height="67.733322"
     x="0"
     y="-2.1435546e-06"
     ry="6.8791685" />
  <rect
     style="opacity:1;fill:#a1c998;fill-opacity:1;stroke:none;stroke-width:0.06614583;stroke-linecap:round;stroke-linejoin:round;stroke-miterlimit:4;stroke-dasharray:none;stroke-dashoffset:0;stroke-opacity:1;paint-order:stroke fill markers"
     id="rect819"
     width="65.087502"
     height="65.087494"
     x="1.3229166"
     y="1.3229196"
     ry="6.8791685" />
  <path
     id="path821"
     d="M 59.697646,2.0308837 57.357219,3.2401122 56.226022,6.789766 67.109077,27.853596 67.73333,28.05255 V 11.844754 L 63.247299,3.1620808 Z m -9.361185,4.8369137 -2.340428,1.2092286 -1.131712,3.549654 10.883055,21.06383 3.549655,1.130678 6.436299,12.457639 V 40.54016 L 63.637456,32.612479 64.768653,29.062824 53.885597,7.9989946 Z m -9.361704,4.8369136 -2.340425,1.209229 -1.131197,3.549654 10.883056,21.06383 3.549655,1.130681 13.914394,26.931687 c 0.714703,-0.754017 1.260446,-1.669714 1.575615,-2.68924 L 54.275754,37.448874 55.406951,33.899222 44.524412,12.835908 Z m -9.361702,4.836914 -2.339908,1.209229 -1.131713,3.549653 10.882539,21.063312 3.549653,1.131197 12.523265,24.238314 h 2.965712 L 44.914569,42.285788 46.04525,38.736136 35.16271,17.672822 Z m -9.361185,4.836914 -2.340942,1.209228 -1.13068,3.549654 10.88254,21.062796 3.549652,1.131715 10.024195,19.401398 h 2.964677 L 35.552349,47.122702 36.684065,43.57305 25.801525,22.509736 Z m -9.362218,4.836397 -2.339909,1.209744 -1.131197,3.549655 10.88254,21.062796 3.549653,1.131713 7.525123,14.564486 h 2.965193 L 26.191165,51.959616 27.322361,48.409963 16.439306,27.346133 Z M 3.5284668,31.05185 1.1880411,32.261078 0.05684407,35.810215 10.9399,56.874045 l 3.549654,1.131715 5.02605,9.72757 h 2.964677 L 16.829463,56.796014 17.961177,53.246877 7.0781205,32.183047 Z M 0,41.439847 v 17.216518 l 1.5781982,3.054593 3.5496538,1.131197 2.5269776,4.891175 H 10.620023 L 7.4682775,61.632928 8.5994746,58.083272 Z"
     style="fill:#e3d073;fill-opacity:1;stroke:none;stroke-width:0.52686149px;stroke-linecap:butt;stroke-linejoin:miter;stroke-opacity:1" />
  <path
     id="path819"
     d="m 59.673873,1.7471801 -0.09767,0.050643 -2.437577,1.2578043 -1.197343,3.7579099 10.984343,21.2576157 0.807702,0.257349 V 27.776081 L 67.293047,27.635521 56.509727,6.7665118 57.574262,3.4245969 59.7209,2.3151041 63.064366,3.3796386 67.73333,12.417329 v -1.1467 L 63.431785,2.9445229 Z m -9.361185,4.8358802 -0.09767,0.050643 -2.437577,1.2598711 -1.197343,3.7579106 10.982274,21.257616 3.55069,1.130681 6.620266,12.813685 V 45.706769 L 61.480483,33.604667 57.931862,32.471401 47.148541,11.602392 48.213076,8.2604773 50.361265,7.1515011 53.701111,8.2175859 64.484432,29.086594 63.353754,32.635733 67.73333,41.112734 V 39.966033 L 63.921676,32.588706 65.052873,29.038019 54.070083,7.7804033 Z m -9.361701,4.8379477 -0.09767,0.05064 -2.437061,1.257804 -1.197343,3.75791 10.982275,21.257615 3.550689,1.130681 13.90406,26.911534 c 0.133189,-0.129643 0.260607,-0.265083 0.382921,-0.405143 L 52.119297,38.440546 48.570161,37.309349 37.787356,16.440339 l 1.064016,-3.341914 2.146639,-1.109493 3.341915,1.064534 10.783321,20.869526 -1.131197,3.550687 13.315983,25.77362 c 0.08655,-0.234575 0.160179,-0.475425 0.221176,-0.721403 L 54.560491,37.424588 55.691172,33.875968 44.708898,12.618351 Z m -9.361186,4.83588 -0.09767,0.05064 -2.437577,1.259871 -1.197343,3.75791 10.982793,21.25555 3.550687,1.132747 12.410093,24.019721 h 0.59273 l -12.63592,-24.456905 -3.548621,-1.131197 -10.78332,-20.869009 1.064532,-3.341914 2.148708,-1.108976 3.339845,1.064017 10.782805,20.871076 -1.130681,3.549139 13.135115,25.423769 h 0.593246 L 45.199306,42.262534 46.329987,38.711847 35.345643,17.454231 Z m -9.361185,4.837947 -0.09767,0.05064 -2.437577,1.257805 -1.197343,3.757909 10.982274,21.257616 3.551205,1.131197 9.911022,19.183325 H 43.53274 L 33.39641,48.114374 29.84779,46.983177 19.064469,26.114167 l 1.064534,-3.341915 2.146122,-1.109493 3.341915,1.064535 10.78332,20.869526 -1.132748,3.550687 10.636559,20.585823 h 0.593247 L 35.836054,47.098416 36.968801,43.549795 25.984459,22.292178 Z m -9.363252,4.835881 -0.0956,0.05064 -2.437578,1.25987 -1.1973424,3.757911 10.9822744,21.25555 3.549138,1.131197 7.412982,14.347443 H 31.673 L 24.035224,52.950253 20.484537,51.819056 9.7032832,30.950047 l 1.0645348,-3.341915 2.146122,-1.108975 3.341914,1.064017 10.78332,20.871075 -1.132746,3.54914 8.137487,15.749941 h 0.592211 L 26.474353,51.936362 27.605549,48.385675 16.623274,27.128059 Z M 3.5036621,30.768664 3.4080604,30.817239 0.97048336,32.077111 0,35.12447 v 1.148765 l 10.755932,20.8194 3.54862,1.130681 4.913396,9.510014 h 0.594278 L 14.674039,57.788201 11.122835,56.657004 0.34158119,35.785929 1.4061156,32.44608 3.5527544,31.336587 6.8946693,32.401122 17.677473,53.270647 16.544726,56.819268 22.183658,67.73333 h 0.592728 L 17.113167,56.772244 18.245914,53.223623 7.2615718,31.965488 Z M 0,40.865719 v 1.146702 l 8.3142207,16.094106 -1.1306801,3.550689 3.1393434,6.076114 h 0.593762 L 7.7519812,61.608123 8.8826616,58.059502 Z m 0,17.218072 v 1.145148 l 1.3947468,2.699578 3.5486205,1.131197 2.4148396,4.673616 H 7.9519691 L 5.312337,62.62408 1.7616495,61.492884 Z"
     style="color:#000000;font-style:normal;font-variant:normal;font-weight:normal;font-stretch:normal;font-size:medium;line-height:normal;font-family:sans-serif;font-variant-ligatures:normal;font-variant-position:normal;font-variant-caps:normal;font-variant-numeric:normal;font-variant-alternates:normal;font-feature-settings:normal;text-indent:0;text-align:start;text-decoration:none;text-decoration-line:none;text-decoration-style:solid;text-decoration-color:#000000;letter-spacing:normal;word-spacing:normal;text-transform:none;writing-mode:lr-tb;direction:ltr;text-orientation:mixed;dominant-baseline:auto;baseline-shift:baseline;text-anchor:start;white-space:normal;shape-padding:0;clip-rule:nonzero;display:inline;overflow:visible;visibility:visible;opacity:1;isolation:auto;mix-blend-mode:normal;color-interpolation:sRGB;color-interpolation-filters:linearRGB;solid-color:#000000;solid-opacity:1;vector-effect:none;fill:#2a2a2a;fill-opacity:1;fill-rule:nonzero;stroke:none;stroke-width:0.52686149px;stroke-linecap:butt;stroke-linejoin:miter;stroke-miterlimit:4;stroke-dasharray:none;stroke-dashoffset:0;stroke-opacity:1;color-rendering:auto;image-rendering:auto;shape-rendering:auto;text-rendering:auto;enable-background:accumulate" />
  <path
     id="rect837"
     transform="scale(0.26458332)"
     d="M 26 0 C 11.595996 -9.4739031e-15 0 11.595996 0 26 L 0 230 C -2.3684758e-15 244.404 11.595996 256 26 256 L 230 256 C 244.404 256 256 244.404 256 230 L 256 26 C 256 11.595996 244.404 0 230 0 L 26 0 z M 31 5 L 225 5 C 239.404 5 251 16.595996 251 31 L 251 225 C 251 239.404 239.404 251 225 251 L 31 251 C 16.595996 251 5 239.404 5 225 L 5 31 C 5 16.595996 16.595996 5 31 5 z "
     style="opacity:1;fill:#c0e1b9;fill-opacity:1;stroke:none;stroke-width:0.25;stroke-linecap:round;stroke-linejoin:round;stroke-miterlimit:4;stroke-dasharray:none;stroke-dashoffset:0;stroke-opacity:1;paint-order:stroke fill markers" />
</svg>
